<mxfile host="app.diagrams.net" modified="2024-06-05T13:09:00.416Z" agent="Mozilla/5.0 (Macintosh; Intel Mac OS X 10_15_7) AppleWebKit/537.36 (KHTML, like Gecko) Chrome/125.0.0.0 Safari/537.36" etag="xr6Tf__-VBdKgOgo3wbX" version="24.0.5" type="github">
  <diagram name="Page-1" id="fvMB-M6Lad2EwawhbzLy">
    <mxGraphModel dx="4786" dy="4088" grid="1" gridSize="10" guides="1" tooltips="1" connect="1" arrows="1" fold="1" page="1" pageScale="1" pageWidth="850" pageHeight="1100" math="0" shadow="0">
      <root>
        <mxCell id="0" />
        <mxCell id="1" parent="0" />
        <mxCell id="tagtq_6juSg9G1Z948LF-1" value="" style="rounded=0;html=1;jettySize=auto;orthogonalLoop=1;fontSize=11;endArrow=block;endFill=0;endSize=8;strokeWidth=1;shadow=0;labelBackgroundColor=none;edgeStyle=orthogonalEdgeStyle;entryX=0.5;entryY=0;entryDx=0;entryDy=0;" edge="1" parent="1" target="tagtq_6juSg9G1Z948LF-9">
          <mxGeometry relative="1" as="geometry">
            <mxPoint x="534.0476190476193" y="-78" as="sourcePoint" />
            <mxPoint x="218" y="170" as="targetPoint" />
            <Array as="points">
              <mxPoint x="534" y="56" />
              <mxPoint x="219" y="56" />
              <mxPoint x="219" y="170" />
              <mxPoint x="220" y="170" />
            </Array>
          </mxGeometry>
        </mxCell>
        <mxCell id="tagtq_6juSg9G1Z948LF-2" value="" style="edgeStyle=orthogonalEdgeStyle;rounded=0;orthogonalLoop=1;jettySize=auto;html=1;" edge="1" parent="1" source="tagtq_6juSg9G1Z948LF-5" target="tagtq_6juSg9G1Z948LF-30">
          <mxGeometry relative="1" as="geometry">
            <Array as="points">
              <mxPoint x="-242" y="-98" />
              <mxPoint x="-242" y="1774" />
            </Array>
          </mxGeometry>
        </mxCell>
        <mxCell id="tagtq_6juSg9G1Z948LF-3" value="order_is" style="edgeLabel;html=1;align=center;verticalAlign=middle;resizable=0;points=[];" vertex="1" connectable="0" parent="tagtq_6juSg9G1Z948LF-2">
          <mxGeometry x="0.9367" relative="1" as="geometry">
            <mxPoint as="offset" />
          </mxGeometry>
        </mxCell>
        <mxCell id="tagtq_6juSg9G1Z948LF-4" value="" style="edgeStyle=orthogonalEdgeStyle;rounded=0;orthogonalLoop=1;jettySize=auto;html=1;exitX=0.5;exitY=1;exitDx=0;exitDy=0;entryX=0.5;entryY=0;entryDx=0;entryDy=0;" edge="1" parent="1" source="tagtq_6juSg9G1Z948LF-5" target="tagtq_6juSg9G1Z948LF-49">
          <mxGeometry relative="1" as="geometry">
            <Array as="points">
              <mxPoint x="532" y="-14" />
              <mxPoint x="1432" y="-14" />
            </Array>
          </mxGeometry>
        </mxCell>
        <mxCell id="tagtq_6juSg9G1Z948LF-5" value="&lt;font style=&quot;font-size: 24px;&quot;&gt;User / customer&amp;nbsp;&lt;/font&gt;" style="rounded=1;whiteSpace=wrap;html=1;fontSize=12;glass=0;strokeWidth=1;shadow=0;" vertex="1" parent="1">
          <mxGeometry x="424" y="-144" width="216" height="76" as="geometry" />
        </mxCell>
        <mxCell id="tagtq_6juSg9G1Z948LF-6" value="&lt;b&gt;&lt;font style=&quot;font-size: 14px;&quot;&gt;Subscriptions payments&amp;nbsp; (ON HOLD)&lt;/font&gt;&lt;/b&gt;" style="edgeStyle=orthogonalEdgeStyle;rounded=0;html=1;jettySize=auto;orthogonalLoop=1;fontSize=11;endArrow=block;endFill=0;endSize=8;strokeWidth=1;shadow=0;labelBackgroundColor=none;exitX=0.5;exitY=1;exitDx=0;exitDy=0;" edge="1" parent="1" source="tagtq_6juSg9G1Z948LF-5">
          <mxGeometry x="0.3286" y="20" relative="1" as="geometry">
            <mxPoint as="offset" />
            <mxPoint x="270" y="210" as="sourcePoint" />
            <mxPoint x="808" y="60" as="targetPoint" />
            <Array as="points">
              <mxPoint x="536" y="56" />
              <mxPoint x="808" y="56" />
            </Array>
          </mxGeometry>
        </mxCell>
        <mxCell id="tagtq_6juSg9G1Z948LF-7" value="" style="rounded=0;html=1;jettySize=auto;orthogonalLoop=1;fontSize=11;endArrow=block;endFill=0;endSize=8;strokeWidth=1;shadow=0;labelBackgroundColor=none;edgeStyle=orthogonalEdgeStyle;" edge="1" parent="1" target="tagtq_6juSg9G1Z948LF-9">
          <mxGeometry y="20" relative="1" as="geometry">
            <mxPoint as="offset" />
            <mxPoint x="220" y="250" as="sourcePoint" />
            <mxPoint x="220" y="350" as="targetPoint" />
          </mxGeometry>
        </mxCell>
        <mxCell id="tagtq_6juSg9G1Z948LF-8" value="" style="edgeStyle=orthogonalEdgeStyle;rounded=0;orthogonalLoop=1;jettySize=auto;html=1;entryX=0.5;entryY=0;entryDx=0;entryDy=0;" edge="1" parent="1" source="tagtq_6juSg9G1Z948LF-9" target="tagtq_6juSg9G1Z948LF-14">
          <mxGeometry relative="1" as="geometry">
            <Array as="points">
              <mxPoint x="218" y="324" />
              <mxPoint x="218" y="324" />
            </Array>
          </mxGeometry>
        </mxCell>
        <mxCell id="tagtq_6juSg9G1Z948LF-9" value="Create Payment Intent (Order)" style="rounded=0;whiteSpace=wrap;html=1;" vertex="1" parent="1">
          <mxGeometry x="160" y="198" width="120" height="80" as="geometry" />
        </mxCell>
        <mxCell id="tagtq_6juSg9G1Z948LF-10" value="&lt;div style=&quot;text-align: left;&quot;&gt;&lt;br&gt;&lt;/div&gt;&lt;ul style=&quot;border: 0px solid rgb(217, 217, 227); box-sizing: border-box; --tw-border-spacing-x: 0; --tw-border-spacing-y: 0; --tw-translate-x: 0; --tw-translate-y: 0; --tw-rotate: 0; --tw-skew-x: 0; --tw-skew-y: 0; --tw-scale-x: 1; --tw-scale-y: 1; --tw-pan-x: ; --tw-pan-y: ; --tw-pinch-zoom: ; --tw-scroll-snap-strictness: proximity; --tw-gradient-from-position: ; --tw-gradient-via-position: ; --tw-gradient-to-position: ; --tw-ordinal: ; --tw-slashed-zero: ; --tw-numeric-figure: ; --tw-numeric-spacing: ; --tw-numeric-fraction: ; --tw-ring-inset: ; --tw-ring-offset-width: 0px; --tw-ring-offset-color: #fff; --tw-ring-color: rgba(69,89,164,.5); --tw-ring-offset-shadow: 0 0 transparent; --tw-ring-shadow: 0 0 transparent; --tw-shadow: 0 0 transparent; --tw-shadow-colored: 0 0 transparent; --tw-blur: ; --tw-brightness: ; --tw-contrast: ; --tw-grayscale: ; --tw-hue-rotate: ; --tw-invert: ; --tw-saturate: ; --tw-sepia: ; --tw-drop-shadow: ; --tw-backdrop-blur: ; --tw-backdrop-brightness: ; --tw-backdrop-contrast: ; --tw-backdrop-grayscale: ; --tw-backdrop-hue-rotate: ; --tw-backdrop-invert: ; --tw-backdrop-opacity: ; --tw-backdrop-saturate: ; --tw-backdrop-sepia: ; list-style-position: initial; list-style-image: initial; margin: 0px 0px 0px 1rem; padding: 0px; display: flex; flex-direction: column; color: rgb(209, 213, 219); font-family: SÃ¶hne, ui-sans-serif, system-ui, -apple-system, &amp;quot;Segoe UI&amp;quot;, Roboto, Ubuntu, Cantarell, &amp;quot;Noto Sans&amp;quot;, sans-serif, &amp;quot;Helvetica Neue&amp;quot;, Arial, &amp;quot;Apple Color Emoji&amp;quot;, &amp;quot;Segoe UI Emoji&amp;quot;, &amp;quot;Segoe UI Symbol&amp;quot;, &amp;quot;Noto Color Emoji&amp;quot;; font-size: 16px; text-align: left; background-color: rgb(52, 53, 65);&quot;&gt;&lt;/ul&gt;" style="text;html=1;align=center;verticalAlign=middle;resizable=0;points=[];autosize=1;" vertex="1" parent="1">
          <mxGeometry x="299" y="32" width="36" height="28" as="geometry" />
        </mxCell>
        <mxCell id="tagtq_6juSg9G1Z948LF-11" value="&lt;font style=&quot;font-size: 14px;&quot;&gt;&lt;b&gt;one-time payments&lt;/b&gt;&lt;/font&gt;" style="text;html=1;align=center;verticalAlign=middle;resizable=0;points=[];autosize=1;strokeColor=none;fillColor=none;" vertex="1" parent="1">
          <mxGeometry x="225" y="29" width="148" height="30" as="geometry" />
        </mxCell>
        <mxCell id="tagtq_6juSg9G1Z948LF-12" value="" style="edgeStyle=orthogonalEdgeStyle;rounded=0;orthogonalLoop=1;jettySize=auto;html=1;" edge="1" parent="1" source="tagtq_6juSg9G1Z948LF-14" target="tagtq_6juSg9G1Z948LF-21">
          <mxGeometry relative="1" as="geometry" />
        </mxCell>
        <mxCell id="tagtq_6juSg9G1Z948LF-13" style="edgeStyle=none;html=1;entryX=0.5;entryY=0;entryDx=0;entryDy=0;" edge="1" parent="1" source="tagtq_6juSg9G1Z948LF-14" target="tagtq_6juSg9G1Z948LF-18">
          <mxGeometry relative="1" as="geometry" />
        </mxCell>
        <mxCell id="tagtq_6juSg9G1Z948LF-14" value="Complete Payment&lt;br&gt;(Checkout)" style="rounded=0;whiteSpace=wrap;html=1;" vertex="1" parent="1">
          <mxGeometry x="156" y="470" width="124" height="68" as="geometry" />
        </mxCell>
        <mxCell id="tagtq_6juSg9G1Z948LF-15" value="&lt;strong style=&quot;border-color: var(--border-color); text-align: left; font-size: 10px;&quot;&gt;Sends the details like (amount, currency in body )&lt;br&gt;&amp;nbsp;and provider name in query params&lt;br&gt;&lt;br&gt;&lt;/strong&gt;" style="text;html=1;align=center;verticalAlign=middle;resizable=0;points=[];autosize=1;strokeColor=none;fillColor=none;" vertex="1" parent="1">
          <mxGeometry x="214" y="112" width="256" height="56" as="geometry" />
        </mxCell>
        <mxCell id="tagtq_6juSg9G1Z948LF-16" value="&lt;strong style=&quot;border-color: var(--border-color); text-align: left;&quot;&gt;returns client_secret&lt;br&gt;&lt;br&gt;&lt;/strong&gt;" style="text;html=1;align=center;verticalAlign=middle;resizable=0;points=[];autosize=1;strokeColor=none;fillColor=none;" vertex="1" parent="1">
          <mxGeometry x="220" y="323" width="140" height="40" as="geometry" />
        </mxCell>
        <mxCell id="tagtq_6juSg9G1Z948LF-17" value="" style="edgeStyle=orthogonalEdgeStyle;rounded=0;orthogonalLoop=1;jettySize=auto;html=1;" edge="1" parent="1" source="tagtq_6juSg9G1Z948LF-18" target="tagtq_6juSg9G1Z948LF-28">
          <mxGeometry relative="1" as="geometry">
            <Array as="points">
              <mxPoint x="215" y="1078" />
              <mxPoint x="215" y="1078" />
            </Array>
          </mxGeometry>
        </mxCell>
        <mxCell id="tagtq_6juSg9G1Z948LF-18" value="Stripe (Transaction Processing)&amp;nbsp;" style="shape=process;whiteSpace=wrap;html=1;backgroundOutline=1;" vertex="1" parent="1">
          <mxGeometry x="97" y="954" width="238" height="74" as="geometry" />
        </mxCell>
        <mxCell id="tagtq_6juSg9G1Z948LF-19" value="" style="rounded=0;html=1;jettySize=auto;orthogonalLoop=1;fontSize=11;endArrow=block;endFill=0;endSize=8;strokeWidth=1;shadow=0;labelBackgroundColor=none;edgeStyle=orthogonalEdgeStyle;exitX=0.5;exitY=1;exitDx=0;exitDy=0;" edge="1" parent="1">
          <mxGeometry x="0.3333" y="20" relative="1" as="geometry">
            <mxPoint as="offset" />
            <mxPoint x="214" y="1366" as="sourcePoint" />
            <mxPoint x="214" y="1562" as="targetPoint" />
            <Array as="points">
              <mxPoint x="214" y="1560" />
              <mxPoint x="214" y="1560" />
            </Array>
          </mxGeometry>
        </mxCell>
        <mxCell id="tagtq_6juSg9G1Z948LF-20" value="" style="edgeStyle=orthogonalEdgeStyle;rounded=0;orthogonalLoop=1;jettySize=auto;html=1;" edge="1" parent="1" source="tagtq_6juSg9G1Z948LF-21" target="tagtq_6juSg9G1Z948LF-9">
          <mxGeometry relative="1" as="geometry" />
        </mxCell>
        <mxCell id="tagtq_6juSg9G1Z948LF-21" value="" style="shape=waypoint;sketch=0;size=6;pointerEvents=1;points=[];fillColor=default;resizable=0;rotatable=0;perimeter=centerPerimeter;snapToPoint=1;rounded=0;" vertex="1" parent="1">
          <mxGeometry x="12" y="228" width="20" height="20" as="geometry" />
        </mxCell>
        <mxCell id="tagtq_6juSg9G1Z948LF-22" value="payment failed" style="text;html=1;align=center;verticalAlign=middle;resizable=0;points=[];autosize=1;strokeColor=none;fillColor=none;" vertex="1" parent="1">
          <mxGeometry x="-22" y="212" width="98" height="28" as="geometry" />
        </mxCell>
        <mxCell id="tagtq_6juSg9G1Z948LF-23" value="" style="edgeStyle=orthogonalEdgeStyle;rounded=0;orthogonalLoop=1;jettySize=auto;html=1;" edge="1" parent="1" source="tagtq_6juSg9G1Z948LF-25" target="tagtq_6juSg9G1Z948LF-33">
          <mxGeometry relative="1" as="geometry" />
        </mxCell>
        <mxCell id="tagtq_6juSg9G1Z948LF-24" value="order_id&lt;br&gt;amount" style="edgeLabel;html=1;align=center;verticalAlign=middle;resizable=0;points=[];" vertex="1" connectable="0" parent="tagtq_6juSg9G1Z948LF-23">
          <mxGeometry x="-0.1364" y="-1" relative="1" as="geometry">
            <mxPoint x="1" y="10" as="offset" />
          </mxGeometry>
        </mxCell>
        <mxCell id="tagtq_6juSg9G1Z948LF-25" value="&lt;font style=&quot;font-size: 13px;&quot;&gt;Updates the DB payment status&lt;/font&gt;" style="rounded=1;whiteSpace=wrap;html=1;" vertex="1" parent="1">
          <mxGeometry x="96" y="1558" width="244" height="60" as="geometry" />
        </mxCell>
        <mxCell id="tagtq_6juSg9G1Z948LF-26" value="" style="edgeStyle=orthogonalEdgeStyle;rounded=0;orthogonalLoop=1;jettySize=auto;html=1;" edge="1" parent="1" source="tagtq_6juSg9G1Z948LF-27" target="tagtq_6juSg9G1Z948LF-29">
          <mxGeometry relative="1" as="geometry">
            <Array as="points">
              <mxPoint x="-138" y="1299" />
              <mxPoint x="-138" y="242" />
            </Array>
          </mxGeometry>
        </mxCell>
        <mxCell id="tagtq_6juSg9G1Z948LF-27" value="&lt;div&gt;&lt;span style=&quot;border: 0px solid rgb(217, 217, 227); box-sizing: border-box; --tw-border-spacing-x: 0; --tw-border-spacing-y: 0; --tw-translate-x: 0; --tw-translate-y: 0; --tw-rotate: 0; --tw-skew-x: 0; --tw-skew-y: 0; --tw-scale-x: 1; --tw-scale-y: 1; --tw-pan-x: ; --tw-pan-y: ; --tw-pinch-zoom: ; --tw-scroll-snap-strictness: proximity; --tw-gradient-from-position: ; --tw-gradient-via-position: ; --tw-gradient-to-position: ; --tw-ordinal: ; --tw-slashed-zero: ; --tw-numeric-figure: ; --tw-numeric-spacing: ; --tw-numeric-fraction: ; --tw-ring-inset: ; --tw-ring-offset-width: 0px; --tw-ring-offset-color: #fff; --tw-ring-color: rgba(69,89,164,.5); --tw-ring-offset-shadow: 0 0 transparent; --tw-ring-shadow: 0 0 transparent; --tw-shadow: 0 0 transparent; --tw-shadow-colored: 0 0 transparent; --tw-blur: ; --tw-brightness: ; --tw-contrast: ; --tw-grayscale: ; --tw-hue-rotate: ; --tw-invert: ; --tw-saturate: ; --tw-sepia: ; --tw-drop-shadow: ; --tw-backdrop-blur: ; --tw-backdrop-brightness: ; --tw-backdrop-contrast: ; --tw-backdrop-grayscale: ; --tw-backdrop-hue-rotate: ; --tw-backdrop-invert: ; --tw-backdrop-opacity: ; --tw-backdrop-saturate: ; --tw-backdrop-sepia: ;&quot;&gt;&lt;div style=&quot;text-align: left;&quot;&gt;&lt;font style=&quot;font-size: 14px;&quot;&gt;Payment Confirmation&lt;/font&gt;&lt;/div&gt;&lt;span style=&quot;border-image: initial; --tw-border-spacing-x: 0; --tw-border-spacing-y: 0; --tw-translate-x: 0; --tw-translate-y: 0; --tw-rotate: 0; --tw-skew-x: 0; --tw-skew-y: 0; --tw-scale-x: 1; --tw-scale-y: 1; --tw-pan-x: ; --tw-pan-y: ; --tw-pinch-zoom: ; --tw-scroll-snap-strictness: proximity; --tw-gradient-from-position: ; --tw-gradient-via-position: ; --tw-gradient-to-position: ; --tw-ordinal: ; --tw-slashed-zero: ; --tw-numeric-figure: ; --tw-numeric-spacing: ; --tw-numeric-fraction: ; --tw-ring-inset: ; --tw-ring-offset-width: 0px; --tw-ring-offset-color: #fff; --tw-ring-color: rgba(69,89,164,.5); --tw-ring-offset-shadow: 0 0 transparent; --tw-ring-shadow: 0 0 transparent; --tw-shadow: 0 0 transparent; --tw-shadow-colored: 0 0 transparent; --tw-blur: ; --tw-brightness: ; --tw-contrast: ; --tw-grayscale: ; --tw-hue-rotate: ; --tw-invert: ; --tw-saturate: ; --tw-sepia: ; --tw-drop-shadow: ; --tw-backdrop-blur: ; --tw-backdrop-brightness: ; --tw-backdrop-contrast: ; --tw-backdrop-grayscale: ; --tw-backdrop-hue-rotate: ; --tw-backdrop-invert: ; --tw-backdrop-opacity: ; --tw-backdrop-saturate: ; --tw-backdrop-sepia: ; list-style-position: initial; list-style-image: initial; margin-left: 1rem;&quot;&gt;&lt;ul style=&quot;border: 0px solid rgb(217, 217, 227); box-sizing: border-box; --tw-border-spacing-x: 0; --tw-border-spacing-y: 0; --tw-translate-x: 0; --tw-translate-y: 0; --tw-rotate: 0; --tw-skew-x: 0; --tw-skew-y: 0; --tw-scale-x: 1; --tw-scale-y: 1; --tw-pan-x: ; --tw-pan-y: ; --tw-pinch-zoom: ; --tw-scroll-snap-strictness: proximity; --tw-gradient-from-position: ; --tw-gradient-via-position: ; --tw-gradient-to-position: ; --tw-ordinal: ; --tw-slashed-zero: ; --tw-numeric-figure: ; --tw-numeric-spacing: ; --tw-numeric-fraction: ; --tw-ring-inset: ; --tw-ring-offset-width: 0px; --tw-ring-offset-color: #fff; --tw-ring-color: rgba(69,89,164,.5); --tw-ring-offset-shadow: 0 0 transparent; --tw-ring-shadow: 0 0 transparent; --tw-shadow: 0 0 transparent; --tw-shadow-colored: 0 0 transparent; --tw-blur: ; --tw-brightness: ; --tw-contrast: ; --tw-grayscale: ; --tw-hue-rotate: ; --tw-invert: ; --tw-saturate: ; --tw-sepia: ; --tw-drop-shadow: ; --tw-backdrop-blur: ; --tw-backdrop-brightness: ; --tw-backdrop-contrast: ; --tw-backdrop-grayscale: ; --tw-backdrop-hue-rotate: ; --tw-backdrop-invert: ; --tw-backdrop-opacity: ; --tw-backdrop-saturate: ; --tw-backdrop-sepia: ; list-style-position: initial; list-style-image: initial; margin: 0px 0px 0px 1rem; padding: 0px; display: flex; flex-direction: column; color: rgb(209, 213, 219); font-family: SÃ¶hne, ui-sans-serif, system-ui, -apple-system, &amp;quot;Segoe UI&amp;quot;, Roboto, Ubuntu, Cantarell, &amp;quot;Noto Sans&amp;quot;, sans-serif, &amp;quot;Helvetica Neue&amp;quot;, Arial, &amp;quot;Apple Color Emoji&amp;quot;, &amp;quot;Segoe UI Emoji&amp;quot;, &amp;quot;Segoe UI Symbol&amp;quot;, &amp;quot;Noto Color Emoji&amp;quot;; font-size: 16px; font-weight: 400; text-align: left; background-color: rgb(52, 53, 65);&quot;&gt;&lt;/ul&gt;&lt;/span&gt;&lt;/span&gt;&lt;/div&gt;&lt;ul style=&quot;border: 0px solid rgb(217, 217, 227); box-sizing: border-box; --tw-border-spacing-x: 0; --tw-border-spacing-y: 0; --tw-translate-x: 0; --tw-translate-y: 0; --tw-rotate: 0; --tw-skew-x: 0; --tw-skew-y: 0; --tw-scale-x: 1; --tw-scale-y: 1; --tw-pan-x: ; --tw-pan-y: ; --tw-pinch-zoom: ; --tw-scroll-snap-strictness: proximity; --tw-gradient-from-position: ; --tw-gradient-via-position: ; --tw-gradient-to-position: ; --tw-ordinal: ; --tw-slashed-zero: ; --tw-numeric-figure: ; --tw-numeric-spacing: ; --tw-numeric-fraction: ; --tw-ring-inset: ; --tw-ring-offset-width: 0px; --tw-ring-offset-color: #fff; --tw-ring-color: rgba(69,89,164,.5); --tw-ring-offset-shadow: 0 0 transparent; --tw-ring-shadow: 0 0 transparent; --tw-shadow: 0 0 transparent; --tw-shadow-colored: 0 0 transparent; --tw-blur: ; --tw-brightness: ; --tw-contrast: ; --tw-grayscale: ; --tw-hue-rotate: ; --tw-invert: ; --tw-saturate: ; --tw-sepia: ; --tw-drop-shadow: ; --tw-backdrop-blur: ; --tw-backdrop-brightness: ; --tw-backdrop-contrast: ; --tw-backdrop-grayscale: ; --tw-backdrop-hue-rotate: ; --tw-backdrop-invert: ; --tw-backdrop-opacity: ; --tw-backdrop-saturate: ; --tw-backdrop-sepia: ; list-style-position: initial; list-style-image: initial; margin: 0px 0px 0px 1rem; padding: 0px; display: flex; flex-direction: column; color: rgb(209, 213, 219); font-family: SÃ¶hne, ui-sans-serif, system-ui, -apple-system, &amp;quot;Segoe UI&amp;quot;, Roboto, Ubuntu, Cantarell, &amp;quot;Noto Sans&amp;quot;, sans-serif, &amp;quot;Helvetica Neue&amp;quot;, Arial, &amp;quot;Apple Color Emoji&amp;quot;, &amp;quot;Segoe UI Emoji&amp;quot;, &amp;quot;Segoe UI Symbol&amp;quot;, &amp;quot;Noto Color Emoji&amp;quot;; font-size: 16px; text-align: left; background-color: rgb(52, 53, 65);&quot;&gt;&lt;/ul&gt;" style="rhombus;whiteSpace=wrap;html=1;" vertex="1" parent="1">
          <mxGeometry x="122" y="1230" width="182" height="138" as="geometry" />
        </mxCell>
        <mxCell id="tagtq_6juSg9G1Z948LF-28" value="" style="shape=waypoint;sketch=0;size=6;pointerEvents=1;points=[];fillColor=default;resizable=0;rotatable=0;perimeter=centerPerimeter;snapToPoint=1;" vertex="1" parent="1">
          <mxGeometry x="205" y="1216" width="20" height="20" as="geometry" />
        </mxCell>
        <mxCell id="tagtq_6juSg9G1Z948LF-29" value="" style="shape=waypoint;sketch=0;size=6;pointerEvents=1;points=[];fillColor=default;resizable=0;rotatable=0;perimeter=centerPerimeter;snapToPoint=1;" vertex="1" parent="1">
          <mxGeometry x="146" y="232" width="20" height="20" as="geometry" />
        </mxCell>
        <mxCell id="tagtq_6juSg9G1Z948LF-30" value="" style="shape=waypoint;sketch=0;size=6;pointerEvents=1;points=[];fillColor=default;resizable=0;rotatable=0;perimeter=centerPerimeter;snapToPoint=1;rounded=1;glass=0;strokeWidth=1;shadow=0;" vertex="1" parent="1">
          <mxGeometry x="72" y="1764" width="20" height="20" as="geometry" />
        </mxCell>
        <mxCell id="tagtq_6juSg9G1Z948LF-31" value="" style="edgeStyle=orthogonalEdgeStyle;rounded=0;orthogonalLoop=1;jettySize=auto;html=1;" edge="1" parent="1" source="tagtq_6juSg9G1Z948LF-32" target="tagtq_6juSg9G1Z948LF-34">
          <mxGeometry relative="1" as="geometry" />
        </mxCell>
        <mxCell id="tagtq_6juSg9G1Z948LF-32" value="&lt;font style=&quot;font-size: 33px;&quot;&gt;Refund&lt;/font&gt;" style="rounded=0;whiteSpace=wrap;html=1;" vertex="1" parent="1">
          <mxGeometry x="87" y="1744" width="280" height="60" as="geometry" />
        </mxCell>
        <mxCell id="tagtq_6juSg9G1Z948LF-33" value="" style="shape=waypoint;sketch=0;size=6;pointerEvents=1;points=[];fillColor=default;resizable=0;rotatable=0;perimeter=centerPerimeter;snapToPoint=1;rounded=1;" vertex="1" parent="1">
          <mxGeometry x="208" y="1732" width="20" height="20" as="geometry" />
        </mxCell>
        <mxCell id="tagtq_6juSg9G1Z948LF-34" value="" style="shape=waypoint;sketch=0;size=6;pointerEvents=1;points=[];fillColor=default;resizable=0;rotatable=0;perimeter=centerPerimeter;snapToPoint=1;rounded=0;" vertex="1" parent="1">
          <mxGeometry x="217" y="1904" width="20" height="20" as="geometry" />
        </mxCell>
        <mxCell id="tagtq_6juSg9G1Z948LF-35" value="" style="edgeStyle=orthogonalEdgeStyle;rounded=0;orthogonalLoop=1;jettySize=auto;html=1;" edge="1" parent="1" source="tagtq_6juSg9G1Z948LF-36" target="tagtq_6juSg9G1Z948LF-37">
          <mxGeometry relative="1" as="geometry" />
        </mxCell>
        <mxCell id="tagtq_6juSg9G1Z948LF-36" value="Razorpay (Refund Intialization)&amp;nbsp;" style="shape=process;whiteSpace=wrap;html=1;backgroundOutline=1;" vertex="1" parent="1">
          <mxGeometry x="112" y="1918" width="238" height="74" as="geometry" />
        </mxCell>
        <mxCell id="tagtq_6juSg9G1Z948LF-37" value="" style="shape=waypoint;sketch=0;size=6;pointerEvents=1;points=[];fillColor=default;resizable=0;rotatable=0;perimeter=centerPerimeter;snapToPoint=1;" vertex="1" parent="1">
          <mxGeometry x="221" y="2099" width="20" height="20" as="geometry" />
        </mxCell>
        <mxCell id="tagtq_6juSg9G1Z948LF-38" value="" style="edgeStyle=orthogonalEdgeStyle;rounded=0;orthogonalLoop=1;jettySize=auto;html=1;" edge="1" parent="1" source="tagtq_6juSg9G1Z948LF-40" target="tagtq_6juSg9G1Z948LF-41">
          <mxGeometry relative="1" as="geometry">
            <Array as="points">
              <mxPoint x="470" y="2150" />
              <mxPoint x="470" y="1774" />
            </Array>
          </mxGeometry>
        </mxCell>
        <mxCell id="tagtq_6juSg9G1Z948LF-39" value="" style="edgeStyle=orthogonalEdgeStyle;rounded=0;orthogonalLoop=1;jettySize=auto;html=1;" edge="1" parent="1" source="tagtq_6juSg9G1Z948LF-40" target="tagtq_6juSg9G1Z948LF-42">
          <mxGeometry relative="1" as="geometry" />
        </mxCell>
        <mxCell id="tagtq_6juSg9G1Z948LF-40" value="Refund Confirmation" style="rhombus;whiteSpace=wrap;html=1;" vertex="1" parent="1">
          <mxGeometry x="165" y="2110" width="134" height="80" as="geometry" />
        </mxCell>
        <mxCell id="tagtq_6juSg9G1Z948LF-41" value="" style="shape=waypoint;sketch=0;size=6;pointerEvents=1;points=[];fillColor=default;resizable=0;rotatable=0;perimeter=centerPerimeter;snapToPoint=1;" vertex="1" parent="1">
          <mxGeometry x="360" y="1764" width="20" height="20" as="geometry" />
        </mxCell>
        <mxCell id="tagtq_6juSg9G1Z948LF-42" value="" style="shape=waypoint;sketch=0;size=6;pointerEvents=1;points=[];fillColor=default;resizable=0;rotatable=0;perimeter=centerPerimeter;snapToPoint=1;" vertex="1" parent="1">
          <mxGeometry x="222" y="2300" width="20" height="20" as="geometry" />
        </mxCell>
        <mxCell id="tagtq_6juSg9G1Z948LF-43" value="&lt;font style=&quot;font-size: 13px;&quot;&gt;Updates the DB Refund status&lt;/font&gt;" style="rounded=1;whiteSpace=wrap;html=1;" vertex="1" parent="1">
          <mxGeometry x="112" y="2314" width="244" height="60" as="geometry" />
        </mxCell>
        <mxCell id="tagtq_6juSg9G1Z948LF-44" value="&lt;font style=&quot;font-size: 55px;&quot;&gt;Stripe Payment Flow&amp;nbsp;&lt;/font&gt;" style="text;html=1;align=center;verticalAlign=middle;resizable=0;points=[];autosize=1;strokeColor=none;fillColor=none;" vertex="1" parent="1">
          <mxGeometry x="318" y="-326" width="550" height="80" as="geometry" />
        </mxCell>
        <mxCell id="tagtq_6juSg9G1Z948LF-45" value="" style="shape=actor;whiteSpace=wrap;html=1;" vertex="1" parent="1">
          <mxGeometry x="512" y="-212" width="40" height="60" as="geometry" />
        </mxCell>
        <mxCell id="tagtq_6juSg9G1Z948LF-46" value="" style="shape=waypoint;sketch=0;size=6;pointerEvents=1;points=[];fillColor=default;resizable=0;rotatable=0;perimeter=centerPerimeter;snapToPoint=1;rounded=1;glass=0;strokeWidth=1;shadow=0;" vertex="1" parent="1">
          <mxGeometry x="1426" y="182" width="20" height="20" as="geometry" />
        </mxCell>
        <mxCell id="tagtq_6juSg9G1Z948LF-47" value="&lt;strong&gt;CREATE CONTACT OR FUND ACCOUNT FOR MERCHANT&lt;/strong&gt;" style="text;html=1;align=center;verticalAlign=middle;resizable=0;points=[];autosize=1;strokeColor=none;fillColor=none;" vertex="1" parent="1">
          <mxGeometry x="1014" y="-42" width="350" height="28" as="geometry" />
        </mxCell>
        <mxCell id="tagtq_6juSg9G1Z948LF-48" value="" style="edgeStyle=orthogonalEdgeStyle;rounded=0;orthogonalLoop=1;jettySize=auto;html=1;" edge="1" parent="1" source="tagtq_6juSg9G1Z948LF-49" target="tagtq_6juSg9G1Z948LF-53">
          <mxGeometry relative="1" as="geometry" />
        </mxCell>
        <mxCell id="tagtq_6juSg9G1Z948LF-49" value="Create Stripe Account" style="rounded=0;whiteSpace=wrap;html=1;" vertex="1" parent="1">
          <mxGeometry x="1334" y="192" width="196" height="58" as="geometry" />
        </mxCell>
        <mxCell id="tagtq_6juSg9G1Z948LF-50" value="Request body" style="swimlane;fontStyle=0;childLayout=stackLayout;horizontal=1;startSize=30;horizontalStack=0;resizeParent=1;resizeParentMax=0;resizeLast=0;collapsible=1;marginBottom=0;whiteSpace=wrap;html=1;" vertex="1" collapsed="1" parent="1">
          <mxGeometry x="1438" y="70" width="110" height="30" as="geometry">
            <mxRectangle x="1440" y="46" width="146" height="114" as="alternateBounds" />
          </mxGeometry>
        </mxCell>
        <mxCell id="tagtq_6juSg9G1Z948LF-51" value="&lt;div style=&quot;color: rgb(238, 255, 255); background-color: rgb(33, 33, 33); font-family: Menlo, Monaco, &amp;quot;Courier New&amp;quot;, monospace; line-height: 18px;&quot;&gt;&lt;div&gt;name: &lt;span style=&quot;color: #ffcb6b;&quot;&gt;string&lt;/span&gt;&lt;span style=&quot;color: #89ddff;&quot;&gt;;&lt;/span&gt;&lt;/div&gt;&lt;div&gt;  email&lt;span style=&quot;color: #89ddff;&quot;&gt;:&lt;/span&gt; &lt;span style=&quot;color: #ffcb6b;&quot;&gt;string&lt;/span&gt;&lt;span style=&quot;color: #89ddff;&quot;&gt;;&lt;/span&gt;&lt;/div&gt;&lt;div&gt;  contact&lt;span style=&quot;color: #89ddff;&quot;&gt;:&lt;/span&gt; &lt;span style=&quot;color: #ffcb6b;&quot;&gt;string&lt;/span&gt;&lt;span style=&quot;color: #89ddff;&quot;&gt;;&lt;/span&gt;&lt;/div&gt;&lt;div&gt;  type&lt;span style=&quot;color: #89ddff;&quot;&gt;:&lt;/span&gt; &lt;span style=&quot;color: #ffcb6b;&quot;&gt;string&lt;/span&gt;&lt;span style=&quot;color: #89ddff;&quot;&gt;;&lt;/span&gt;&lt;/div&gt;&lt;/div&gt;" style="text;strokeColor=none;fillColor=none;align=left;verticalAlign=middle;spacingLeft=4;spacingRight=4;overflow=hidden;points=[[0,0.5],[1,0.5]];portConstraint=eastwest;rotatable=0;whiteSpace=wrap;html=1;" vertex="1" parent="tagtq_6juSg9G1Z948LF-50">
          <mxGeometry y="30" width="146" height="84" as="geometry" />
        </mxCell>
        <mxCell id="tagtq_6juSg9G1Z948LF-52" value="" style="edgeStyle=orthogonalEdgeStyle;rounded=0;orthogonalLoop=1;jettySize=auto;html=1;" edge="1" parent="1" source="tagtq_6juSg9G1Z948LF-53" target="tagtq_6juSg9G1Z948LF-57">
          <mxGeometry relative="1" as="geometry" />
        </mxCell>
        <mxCell id="tagtq_6juSg9G1Z948LF-53" value="Add Bank Account" style="rounded=0;whiteSpace=wrap;html=1;" vertex="1" parent="1">
          <mxGeometry x="1334" y="412" width="196" height="60" as="geometry" />
        </mxCell>
        <mxCell id="tagtq_6juSg9G1Z948LF-54" value="Request body" style="swimlane;fontStyle=0;childLayout=stackLayout;horizontal=1;startSize=30;horizontalStack=0;resizeParent=1;resizeParentMax=0;resizeLast=0;collapsible=1;marginBottom=0;whiteSpace=wrap;html=1;" vertex="1" collapsed="1" parent="1">
          <mxGeometry x="1440" y="302" width="110" height="30" as="geometry">
            <mxRectangle x="1440" y="280" width="178" height="114" as="alternateBounds" />
          </mxGeometry>
        </mxCell>
        <mxCell id="tagtq_6juSg9G1Z948LF-55" value="&lt;div style=&quot;color: rgb(238, 255, 255); background-color: rgb(33, 33, 33); font-family: Menlo, Monaco, &amp;quot;Courier New&amp;quot;, monospace; line-height: 18px;&quot;&gt;&lt;div style=&quot;line-height: 18px;&quot;&gt;&lt;div&gt;contact_id: &lt;span style=&quot;color: #ffcb6b;&quot;&gt;string&lt;/span&gt;&lt;span style=&quot;color: #89ddff;&quot;&gt;;&lt;/span&gt;&lt;/div&gt;&lt;div&gt;  name&lt;span style=&quot;color: #89ddff;&quot;&gt;:&lt;/span&gt; &lt;span style=&quot;color: #ffcb6b;&quot;&gt;string&lt;/span&gt;&lt;span style=&quot;color: #89ddff;&quot;&gt;;&lt;/span&gt;&lt;/div&gt;&lt;div&gt;  ifsc&lt;span style=&quot;color: #89ddff;&quot;&gt;:&lt;/span&gt; &lt;span style=&quot;color: #ffcb6b;&quot;&gt;string&lt;/span&gt;&lt;span style=&quot;color: #89ddff;&quot;&gt;;&lt;/span&gt;&lt;/div&gt;&lt;div&gt;  account_number&lt;span style=&quot;color: #89ddff;&quot;&gt;:&lt;/span&gt; &lt;span style=&quot;color: #ffcb6b;&quot;&gt;string&lt;/span&gt;&lt;span style=&quot;color: #89ddff;&quot;&gt;;&lt;/span&gt;&lt;/div&gt;&lt;/div&gt;&lt;/div&gt;" style="text;strokeColor=none;fillColor=none;align=left;verticalAlign=middle;spacingLeft=4;spacingRight=4;overflow=hidden;points=[[0,0.5],[1,0.5]];portConstraint=eastwest;rotatable=0;whiteSpace=wrap;html=1;" vertex="1" parent="tagtq_6juSg9G1Z948LF-54">
          <mxGeometry y="30" width="178" height="84" as="geometry" />
        </mxCell>
        <mxCell id="tagtq_6juSg9G1Z948LF-56" value="" style="edgeStyle=orthogonalEdgeStyle;rounded=0;orthogonalLoop=1;jettySize=auto;html=1;entryX=0;entryY=0.42;entryDx=0;entryDy=0;entryPerimeter=0;" edge="1" parent="1" source="tagtq_6juSg9G1Z948LF-57" target="tagtq_6juSg9G1Z948LF-60">
          <mxGeometry relative="1" as="geometry">
            <mxPoint x="1530" y="615.0476190476193" as="sourcePoint" />
            <mxPoint x="1854" y="54" as="targetPoint" />
            <Array as="points">
              <mxPoint x="1702" y="615" />
              <mxPoint x="1702" y="54" />
            </Array>
          </mxGeometry>
        </mxCell>
        <mxCell id="tagtq_6juSg9G1Z948LF-57" value="Fund Account Created&amp;nbsp;" style="rounded=1;whiteSpace=wrap;html=1;" vertex="1" parent="1">
          <mxGeometry x="1340" y="585" width="184" height="60" as="geometry" />
        </mxCell>
        <mxCell id="tagtq_6juSg9G1Z948LF-58" value="&lt;font size=&quot;1&quot; style=&quot;&quot;&gt;&lt;b style=&quot;font-size: 17px;&quot;&gt;Payout Flow&amp;nbsp;&lt;/b&gt;&lt;/font&gt;" style="text;html=1;align=center;verticalAlign=middle;resizable=0;points=[];autosize=1;strokeColor=none;fillColor=none;" vertex="1" parent="1">
          <mxGeometry x="1906" y="-36" width="124" height="34" as="geometry" />
        </mxCell>
        <mxCell id="tagtq_6juSg9G1Z948LF-59" value="" style="edgeStyle=orthogonalEdgeStyle;rounded=0;orthogonalLoop=1;jettySize=auto;html=1;" edge="1" parent="1" source="tagtq_6juSg9G1Z948LF-60" target="tagtq_6juSg9G1Z948LF-64">
          <mxGeometry relative="1" as="geometry" />
        </mxCell>
        <mxCell id="tagtq_6juSg9G1Z948LF-60" value="Triggers&amp;nbsp;&lt;br&gt;for eg: Merchat payment, Virtual wallet withraw" style="whiteSpace=wrap;html=1;" vertex="1" parent="1">
          <mxGeometry x="1868" y="29" width="240" height="60" as="geometry" />
        </mxCell>
        <mxCell id="tagtq_6juSg9G1Z948LF-61" value="Request body" style="swimlane;fontStyle=0;childLayout=stackLayout;horizontal=1;startSize=30;horizontalStack=0;resizeParent=1;resizeParentMax=0;resizeLast=0;collapsible=1;marginBottom=0;whiteSpace=wrap;html=1;" vertex="1" collapsed="1" parent="1">
          <mxGeometry x="1712" y="160" width="110" height="30" as="geometry">
            <mxRectangle x="1778" y="200" width="204" height="106" as="alternateBounds" />
          </mxGeometry>
        </mxCell>
        <mxCell id="tagtq_6juSg9G1Z948LF-62" value="&lt;div style=&quot;color: rgb(238, 255, 255); background-color: rgb(33, 33, 33); font-family: Menlo, Monaco, &amp;quot;Courier New&amp;quot;, monospace; font-weight: normal; font-size: 12px; line-height: 18px;&quot;&gt;&lt;div&gt;&lt;span style=&quot;color: #eeffff;&quot;&gt;fund_account_id&lt;/span&gt;&lt;span style=&quot;color: #89ddff;&quot;&gt;:&lt;/span&gt;&lt;span style=&quot;color: #eeffff;&quot;&gt; &lt;/span&gt;&lt;span style=&quot;color: #ffcb6b;&quot;&gt;string&lt;/span&gt;&lt;span style=&quot;color: #89ddff;&quot;&gt;;&lt;/span&gt;&lt;/div&gt;&lt;div&gt;&lt;span style=&quot;color: #eeffff;&quot;&gt;  &lt;/span&gt;&lt;span style=&quot;color: #eeffff;&quot;&gt;amount&lt;/span&gt;&lt;span style=&quot;color: #89ddff;&quot;&gt;:&lt;/span&gt;&lt;span style=&quot;color: #eeffff;&quot;&gt; &lt;/span&gt;&lt;span style=&quot;color: #ffcb6b;&quot;&gt;number&lt;/span&gt;&lt;span style=&quot;color: #89ddff;&quot;&gt;;&lt;/span&gt;&lt;/div&gt;&lt;div&gt;&lt;span style=&quot;color: #eeffff;&quot;&gt;  &lt;/span&gt;&lt;span style=&quot;color: #eeffff;&quot;&gt;currency&lt;/span&gt;&lt;span style=&quot;color: #89ddff;&quot;&gt;:&lt;/span&gt;&lt;span style=&quot;color: #eeffff;&quot;&gt; &lt;/span&gt;&lt;span style=&quot;color: #ffcb6b;&quot;&gt;string&lt;/span&gt;&lt;span style=&quot;color: #89ddff;&quot;&gt;;&lt;/span&gt;&lt;/div&gt;&lt;/div&gt;" style="text;strokeColor=none;fillColor=none;align=left;verticalAlign=middle;spacingLeft=4;spacingRight=4;overflow=hidden;points=[[0,0.5],[1,0.5]];portConstraint=eastwest;rotatable=0;whiteSpace=wrap;html=1;" vertex="1" parent="tagtq_6juSg9G1Z948LF-61">
          <mxGeometry y="30" width="204" height="76" as="geometry" />
        </mxCell>
        <mxCell id="tagtq_6juSg9G1Z948LF-63" value="" style="edgeStyle=orthogonalEdgeStyle;rounded=0;orthogonalLoop=1;jettySize=auto;html=1;" edge="1" parent="1" source="tagtq_6juSg9G1Z948LF-64" target="tagtq_6juSg9G1Z948LF-66">
          <mxGeometry relative="1" as="geometry" />
        </mxCell>
        <mxCell id="tagtq_6juSg9G1Z948LF-64" value="Initiate Payout Request " style="rounded=0;whiteSpace=wrap;html=1;" vertex="1" parent="1">
          <mxGeometry x="1891" y="158" width="195" height="60" as="geometry" />
        </mxCell>
        <mxCell id="tagtq_6juSg9G1Z948LF-65" value="" style="edgeStyle=orthogonalEdgeStyle;rounded=0;orthogonalLoop=1;jettySize=auto;html=1;" edge="1" parent="1" source="tagtq_6juSg9G1Z948LF-66" target="tagtq_6juSg9G1Z948LF-69">
          <mxGeometry relative="1" as="geometry" />
        </mxCell>
        <mxCell id="tagtq_6juSg9G1Z948LF-66" value="Payout Processing" style="shape=process;whiteSpace=wrap;html=1;backgroundOutline=1;" vertex="1" parent="1">
          <mxGeometry x="1928.5" y="304" width="120" height="60" as="geometry" />
        </mxCell>
        <mxCell id="tagtq_6juSg9G1Z948LF-67" style="edgeStyle=orthogonalEdgeStyle;rounded=0;orthogonalLoop=1;jettySize=auto;html=1;exitX=1;exitY=0.5;exitDx=0;exitDy=0;entryX=1;entryY=0.5;entryDx=0;entryDy=0;" edge="1" parent="1" source="tagtq_6juSg9G1Z948LF-69" target="tagtq_6juSg9G1Z948LF-64">
          <mxGeometry relative="1" as="geometry">
            <Array as="points">
              <mxPoint x="2170" y="474" />
              <mxPoint x="2170" y="188" />
            </Array>
          </mxGeometry>
        </mxCell>
        <mxCell id="tagtq_6juSg9G1Z948LF-68" value="" style="edgeStyle=orthogonalEdgeStyle;rounded=0;orthogonalLoop=1;jettySize=auto;html=1;" edge="1" parent="1" source="tagtq_6juSg9G1Z948LF-69" target="tagtq_6juSg9G1Z948LF-71">
          <mxGeometry relative="1" as="geometry" />
        </mxCell>
        <mxCell id="tagtq_6juSg9G1Z948LF-69" value="Confirmation" style="rhombus;whiteSpace=wrap;html=1;" vertex="1" parent="1">
          <mxGeometry x="1948.5" y="434" width="80" height="80" as="geometry" />
        </mxCell>
        <mxCell id="tagtq_6juSg9G1Z948LF-70" value="" style="edgeStyle=orthogonalEdgeStyle;rounded=0;orthogonalLoop=1;jettySize=auto;html=1;" edge="1" parent="1" source="tagtq_6juSg9G1Z948LF-71" target="tagtq_6juSg9G1Z948LF-72">
          <mxGeometry relative="1" as="geometry" />
        </mxCell>
        <mxCell id="tagtq_6juSg9G1Z948LF-71" value="Transfer Initialised to Recipient&#39;s Account" style="rounded=0;whiteSpace=wrap;html=1;" vertex="1" parent="1">
          <mxGeometry x="1884" y="572" width="208" height="60" as="geometry" />
        </mxCell>
        <mxCell id="tagtq_6juSg9G1Z948LF-72" value="Update Payout Status &lt;br&gt;in DB" style="shape=cylinder3;whiteSpace=wrap;html=1;boundedLbl=1;backgroundOutline=1;size=15;" vertex="1" parent="1">
          <mxGeometry x="1921" y="728" width="134" height="128" as="geometry" />
        </mxCell>
      </root>
    </mxGraphModel>
  </diagram>
</mxfile>
